# xmcd
#
# Track frame offsets: 
#        150
#        19341
#        35808
#        61796
#        85335
#        108639
#        124817
#        144280
#        171680
#        194154
#
# Disc length: 2902 seconds
#
# Revision: 0
# Processed by: cddbd v1.5.2PL0 Copyright (c) Steve Scherf et al.
# Submitted via: ExactAudioCopyFreeDBPlugin 1.0
#
DISCID=980b540a
DTITLE=Balls Capone - Equal Opportunity Apocalypse
DYEAR=2017
DGENRE=Blues
TTITLE0=Nobody Else
TTITLE1=Bad Dreams
TTITLE2=What Our Was
TTITLE3=Left Behind
TTITLE4=Truth Never Bothered
TTITLE5=God and Nixon
TTITLE6=The Business
TTITLE7=Cake Spoons and Ladies Rooms
TTITLE8=Bons and Guns
TTITLE9=Cat-Man Blue
EXTD=
EXTT0=
EXTT1=
EXTT2=
EXTT3=
EXTT4=
EXTT5=
EXTT6=
EXTT7=
EXTT8=
EXTT9=
PLAYORDER=
